<?xml version="1.0" encoding="UTF-8"?>
<svg width="181px" height="182px" viewBox="0 0 181 182" version="1.1" xmlns="http://www.w3.org/2000/svg" xmlns:xlink="http://www.w3.org/1999/xlink">
    <!-- Generator: Sketch 51.1 (57501) - http://www.bohemiancoding.com/sketch -->
    <title>Group 4svg</title>
    <desc>Created with Sketch.</desc>
    <defs>
        <polygon id="path-1" points="150 0 181 29.5184157 181 182 148 150"></polygon>
        <filter x="-3.0%" y="-0.5%" width="106.1%" height="101.1%" filterUnits="objectBoundingBox" id="filter-2">
            <feOffset dx="-2" dy="0" in="SourceAlpha" result="shadowOffsetInner1"></feOffset>
            <feComposite in="shadowOffsetInner1" in2="SourceAlpha" operator="arithmetic" k2="-1" k3="1" result="shadowInnerInner1"></feComposite>
            <feColorMatrix values="0 0 0 0 0   0 0 0 0 0   0 0 0 0 0  0 0 0 1 0" type="matrix" in="shadowInnerInner1"></feColorMatrix>
        </filter>
        <polygon id="path-3" points="0 150 150 150 181 182 33.0892096 182"></polygon>
        <filter x="-0.6%" y="-3.1%" width="101.1%" height="106.2%" filterUnits="objectBoundingBox" id="filter-4">
            <feOffset dx="0" dy="-2" in="SourceAlpha" result="shadowOffsetInner1"></feOffset>
            <feComposite in="shadowOffsetInner1" in2="SourceAlpha" operator="arithmetic" k2="-1" k3="1" result="shadowInnerInner1"></feComposite>
            <feColorMatrix values="0 0 0 0 0   0 0 0 0 0   0 0 0 0 0  0 0 0 1 0" type="matrix" in="shadowInnerInner1" result="shadowMatrixInner1"></feColorMatrix>
            <feOffset dx="-2" dy="0" in="SourceAlpha" result="shadowOffsetInner2"></feOffset>
            <feComposite in="shadowOffsetInner2" in2="SourceAlpha" operator="arithmetic" k2="-1" k3="1" result="shadowInnerInner2"></feComposite>
            <feColorMatrix values="0 0 0 0 0   0 0 0 0 0   0 0 0 0 0  0 0 0 1 0" type="matrix" in="shadowInnerInner2" result="shadowMatrixInner2"></feColorMatrix>
            <feMerge>
                <feMergeNode in="shadowMatrixInner1"></feMergeNode>
                <feMergeNode in="shadowMatrixInner2"></feMergeNode>
            </feMerge>
        </filter>
    </defs>
    <g id="Page-1" stroke="none" stroke-width="1" fill="none" fill-rule="evenodd">
        <g id="Group-4">
            <g id="Rectangle-3" fill-rule="nonzero" fill="black" fill-opacity="1">
                <use filter="url(#filter-2)" xlink:href="#path-1"></use>
            </g>
            <rect id="Rectangle" stroke="#000000" stroke-width="2" fill="#C8FAF0" fill-rule="nonzero" x="1" y="1" width="148" height="148"></rect>
            <g id="Rectangle-2" fill-rule="nonzero" fill="black" fill-opacity="1">
                <use filter="url(#filter-4)" xlink:href="#path-3"></use>
            </g>
            <g id="Group" transform="translate(25.000000, 46.000000)" fill="#000000">
                <path d="M10.9467693,38.568 C10.9467693,40.2960086 11.2587662,41.759994 11.8827693,42.96 C12.5067724,44.160006 13.3347641,45.1319963 14.3667693,45.876 C15.3987744,46.6200037 16.6107623,47.1719982 18.0027693,47.532 C19.3947762,47.8920018 20.8347618,48.072 22.3227693,48.072 C23.3307743,48.072 24.4107635,47.9880008 25.5627693,47.82 C26.714775,47.6519992 27.7947642,47.3280024 28.8027693,46.848 C29.8107743,46.3679976 30.6507659,45.7080042 31.3227693,44.868 C31.9947726,44.0279958 32.3307693,42.9600065 32.3307693,41.664 C32.3307693,40.271993 31.8867737,39.1440043 30.9987693,38.28 C30.1107648,37.4159957 28.9467765,36.6960029 27.5067693,36.12 C26.0667621,35.5439971 24.4347784,35.0400022 22.6107693,34.608 C20.7867602,34.1759978 18.9387786,33.6960026 17.0667693,33.168 C15.1467597,32.6879976 13.2747784,32.1000035 11.4507693,31.404 C9.62676016,30.7079965 7.99477648,29.8080055 6.55476928,28.704 C5.11476208,27.5999945 3.95077372,26.2200083 3.06276928,24.564 C2.17476484,22.9079917 1.73076928,20.9040118 1.73076928,18.552 C1.73076928,15.9119868 2.29476364,13.6200097 3.42276928,11.676 C4.55077492,9.73199028 6.02676016,8.11200648 7.85076928,6.816 C9.6747784,5.51999352 11.7387578,4.56000312 14.0427693,3.936 C16.3467808,3.31199688 18.6507578,3 20.9547693,3 C23.6427827,3 26.2227569,3.299997 28.6947693,3.9 C31.1667816,4.500003 33.3627597,5.47199328 35.2827693,6.816 C37.2027789,8.16000672 38.7267636,9.87598956 39.8547693,11.964 C40.9827749,14.0520104 41.5467693,16.5839851 41.5467693,19.56 L30.6027693,19.56 C30.5067688,18.0239923 30.182772,16.752005 29.6307693,15.744 C29.0787665,14.735995 28.3467738,13.9440029 27.4347693,13.368 C26.5227647,12.7919971 25.4787752,12.3840012 24.3027693,12.144 C23.1267634,11.9039988 21.8427762,11.784 20.4507693,11.784 C19.5387647,11.784 18.6267738,11.879999 17.7147693,12.072 C16.8027647,12.264001 15.974773,12.5999976 15.2307693,13.08 C14.4867656,13.5600024 13.8747717,14.1599964 13.3947693,14.88 C12.9147669,15.6000036 12.6747693,16.5119945 12.6747693,17.616 C12.6747693,18.624005 12.8667674,19.4399969 13.2507693,20.064 C13.6347712,20.6880031 14.3907636,21.2639974 15.5187693,21.792 C16.6467749,22.3200026 18.2067593,22.8479974 20.1987693,23.376 C22.1907792,23.9040026 24.7947532,24.5759959 28.0107693,25.392 C28.9707741,25.584001 30.3027608,25.9319975 32.0067693,26.436 C33.7107778,26.9400025 35.4027609,27.7439945 37.0827693,28.848 C38.7627777,29.9520055 40.2147632,31.4279908 41.4387693,33.276 C42.6627754,35.1240092 43.2747693,37.4879856 43.2747693,40.368 C43.2747693,42.7200118 42.8187738,44.9039899 41.9067693,46.92 C40.9947647,48.9360101 39.6387783,50.6759927 37.8387693,52.14 C36.0387603,53.6040073 33.8067826,54.7439959 31.1427693,55.56 C28.478756,56.3760041 25.3947868,56.784 21.8907693,56.784 C19.0587551,56.784 16.3107826,56.4360035 13.6467693,55.74 C10.982756,55.0439965 8.63077948,53.9520074 6.59076928,52.464 C4.55075908,50.9759926 2.93077528,49.0800115 1.73076928,46.776 C0.530763282,44.4719885 -0.045230958,41.7360158 0.00276928198,38.568 L10.9467693,38.568 Z" id="S"></path>
                <path d="M66.9467693,38.568 C66.9467693,40.2960086 67.2587662,41.759994 67.8827693,42.96 C68.5067724,44.160006 69.3347641,45.1319963 70.3667693,45.876 C71.3987744,46.6200037 72.6107623,47.1719982 74.0027693,47.532 C75.3947762,47.8920018 76.8347618,48.072 78.3227693,48.072 C79.3307743,48.072 80.4107635,47.9880008 81.5627693,47.82 C82.714775,47.6519992 83.7947642,47.3280024 84.8027693,46.848 C85.8107743,46.3679976 86.6507659,45.7080042 87.3227693,44.868 C87.9947726,44.0279958 88.3307693,42.9600065 88.3307693,41.664 C88.3307693,40.271993 87.8867737,39.1440043 86.9987693,38.28 C86.1107648,37.4159957 84.9467765,36.6960029 83.5067693,36.12 C82.0667621,35.5439971 80.4347784,35.0400022 78.6107693,34.608 C76.7867602,34.1759978 74.9387786,33.6960026 73.0667693,33.168 C71.1467597,32.6879976 69.2747784,32.1000035 67.4507693,31.404 C65.6267602,30.7079965 63.9947765,29.8080055 62.5547693,28.704 C61.1147621,27.5999945 59.9507737,26.2200083 59.0627693,24.564 C58.1747648,22.9079917 57.7307693,20.9040118 57.7307693,18.552 C57.7307693,15.9119868 58.2947636,13.6200097 59.4227693,11.676 C60.5507749,9.73199028 62.0267602,8.11200648 63.8507693,6.816 C65.6747784,5.51999352 67.7387578,4.56000312 70.0427693,3.936 C72.3467808,3.31199688 74.6507578,3 76.9547693,3 C79.6427827,3 82.2227569,3.299997 84.6947693,3.9 C87.1667816,4.500003 89.3627597,5.47199328 91.2827693,6.816 C93.2027789,8.16000672 94.7267636,9.87598956 95.8547693,11.964 C96.9827749,14.0520104 97.5467693,16.5839851 97.5467693,19.56 L86.6027693,19.56 C86.5067688,18.0239923 86.182772,16.752005 85.6307693,15.744 C85.0787665,14.735995 84.3467738,13.9440029 83.4347693,13.368 C82.5227647,12.7919971 81.4787752,12.3840012 80.3027693,12.144 C79.1267634,11.9039988 77.8427762,11.784 76.4507693,11.784 C75.5387647,11.784 74.6267738,11.879999 73.7147693,12.072 C72.8027647,12.264001 71.974773,12.5999976 71.2307693,13.08 C70.4867656,13.5600024 69.8747717,14.1599964 69.3947693,14.88 C68.9147669,15.6000036 68.6747693,16.5119945 68.6747693,17.616 C68.6747693,18.624005 68.8667674,19.4399969 69.2507693,20.064 C69.6347712,20.6880031 70.3907636,21.2639974 71.5187693,21.792 C72.6467749,22.3200026 74.2067593,22.8479974 76.1987693,23.376 C78.1907792,23.9040026 80.7947532,24.5759959 84.0107693,25.392 C84.9707741,25.584001 86.3027608,25.9319975 88.0067693,26.436 C89.7107778,26.9400025 91.4027609,27.7439945 93.0827693,28.848 C94.7627777,29.9520055 96.2147632,31.4279908 97.4387693,33.276 C98.6627754,35.1240092 99.2747693,37.4879856 99.2747693,40.368 C99.2747693,42.7200118 98.8187738,44.9039899 97.9067693,46.92 C96.9947647,48.9360101 95.6387783,50.6759927 93.8387693,52.14 C92.0387603,53.6040073 89.8067826,54.7439959 87.1427693,55.56 C84.478756,56.3760041 81.3947868,56.784 77.8907693,56.784 C75.0587551,56.784 72.3107826,56.4360035 69.6467693,55.74 C66.982756,55.0439965 64.6307795,53.9520074 62.5907693,52.464 C60.5507591,50.9759926 58.9307753,49.0800115 57.7307693,46.776 C56.5307633,44.4719885 55.954769,41.7360158 56.0027693,38.568 L66.9467693,38.568 Z" id="S-Copy" transform="translate(77.637385, 29.892000) scale(-1, 1) translate(-77.637385, -29.892000) "></path>
                <polygon id="l" transform="translate(49.637385, 29.317570) scale(-1, 1) translate(-49.637385, -29.317570) " points="49.1373846 0.372791053 49.4991944 0.372791053 49.4991944 58.2623494 49.1373846 58.2623494"></polygon>
            </g>
        </g>
    </g>
</svg>